<?xml version="1.0" standalone="no"?>
<!DOCTYPE svg PUBLIC "-//W3C//DTD SVG 20010904//EN"
 "http://www.w3.org/TR/2001/REC-SVG-20010904/DTD/svg10.dtd">
<svg version="1.0" xmlns="http://www.w3.org/2000/svg"
 width="800.000000pt" height="533.000000pt" viewBox="0 0 800.000000 533.000000"
 preserveAspectRatio="xMidYMid meet">
<metadata>
Created by potrace 1.16, written by Peter Selinger 2001-2019
</metadata>
<g transform="translate(0.000000,533.000000) scale(0.100000,-0.100000)"
fill="#000000" stroke="none">
<path d="M7995 2665 c0 -1469 1 -2068 2 -1332 2 736 2 1938 0 2670 -1 733 -2
131 -2 -1338z"/>
<path d="M3674 3873 c-25 -5 -41 -43 -18 -43 8 0 14 7 14 16 0 14 3 14 15 4 8
-7 15 -18 15 -26 0 -7 8 -15 18 -18 25 -7 187 -24 337 -36 72 -5 207 -17 300
-25 94 -8 200 -15 237 -15 92 0 168 -19 168 -40 0 -10 -6 -22 -12 -27 -20 -16
-263 -24 -868 -29 -305 -2 -565 -7 -577 -9 -17 -4 -23 -12 -23 -34 l0 -28 268
-7 c147 -4 301 -11 342 -16 41 -5 139 -9 217 -10 130 0 143 -2 153 -19 13 -25
3 -50 -25 -61 -12 -4 -107 -8 -211 -9 -105 0 -226 -3 -269 -6 -94 -7 -781 -28
-842 -26 -41 1 -43 0 -43 -28 0 -36 13 -46 30 -26 12 14 15 14 30 0 14 -13
163 -15 1194 -20 727 -4 1186 -9 1197 -15 10 -6 36 -10 59 -10 89 0 233 -67
335 -156 71 -62 105 -135 133 -283 l17 -93 85 -4 c47 -3 122 -2 167 1 82 7 83
7 105 43 12 21 51 71 88 112 36 41 79 93 95 115 16 22 35 46 42 53 18 18 18
17 -29 74 l-43 50 -145 -3 c-80 -1 -214 -2 -298 -1 -152 2 -152 2 -164 27 -8
19 -8 28 2 40 11 13 53 15 287 15 248 0 273 2 265 16 -8 15 -171 191 -250 271
l-32 33 -175 0 -175 0 0 -86 c0 -47 -4 -93 -9 -102 -9 -16 -37 -17 -362 -15
-203 1 -356 6 -361 11 -16 16 -5 46 21 58 15 8 115 12 309 13 158 1 287 3 288
4 2 2 10 112 20 258 l7 96 -604 7 c-1147 13 -1304 14 -1325 9z"/>
<path d="M1882 3063 c-23 -115 -67 -327 -97 -473 -60 -287 -103 -494 -115
-552 l-7 -36 94 -7 c98 -8 248 -3 259 8 9 9 48 194 83 392 16 94 41 222 54
285 14 63 33 153 42 200 9 47 22 101 28 120 11 34 12 32 19 -50 3 -47 11 -168
17 -270 7 -102 16 -230 22 -285 6 -55 14 -145 19 -200 5 -55 14 -121 20 -148
l12 -47 167 0 c91 0 171 4 177 8 12 8 68 106 102 177 13 28 28 57 33 65 5 8
30 58 57 110 26 52 60 115 74 140 14 25 46 83 70 130 58 111 116 200 130 200
22 0 2 -120 -77 -455 -15 -60 -33 -144 -41 -185 -8 -41 -19 -93 -24 -115 -6
-26 -5 -44 2 -52 15 -18 347 -19 370 0 15 12 45 129 149 582 58 256 125 556
133 603 l6 32 -310 0 -309 0 -34 -67 c-40 -79 -178 -341 -233 -443 -11 -19
-22 -36 -26 -38 -5 -2 -8 -9 -8 -15 0 -7 -7 -25 -16 -42 -51 -93 -74 -142 -74
-157 0 -23 -11 -48 -21 -48 -4 0 -7 26 -6 58 3 121 -42 632 -65 732 l-11 50
-312 0 -311 0 -42 -207z"/>
<path d="M3876 3223 c-2 -10 -10 -45 -16 -78 -17 -89 -83 -369 -165 -710 -57
-233 -95 -401 -95 -415 0 -8 184 -10 688 -8 632 3 691 5 742 22 78 26 176 72
240 114 99 64 230 211 230 257 0 3 -130 5 -289 5 l-290 0 -22 -32 c-13 -18
-30 -39 -39 -46 -38 -32 -119 -79 -157 -92 -45 -14 -206 -20 -218 -8 -7 7 4
61 56 284 10 45 19 90 19 101 0 33 -53 43 -233 43 -154 0 -167 1 -167 18 0 10
6 27 14 38 13 18 30 19 264 22 224 3 251 5 257 20 4 9 15 55 25 102 10 47 27
116 37 155 l18 69 50 0 c179 -2 255 -74 255 -241 l0 -63 278 2 277 3 3 50 c10
149 -85 294 -238 363 -93 41 -102 42 -822 42 -655 0 -697 -1 -702 -17z"/>
<path d="M5851 2663 c-5 -10 -14 -38 -21 -63 -17 -65 -105 -235 -159 -308
-113 -150 -339 -271 -605 -323 -54 -11 -104 -23 -110 -27 -6 -4 -447 -9 -981
-12 l-970 -5 0 -41 0 -42 210 -6 c116 -4 248 -6 295 -6 47 1 195 -5 330 -14
135 -8 396 -20 580 -25 184 -6 351 -14 370 -19 43 -10 56 -48 18 -56 -13 -3
-241 -10 -508 -15 -267 -6 -599 -14 -737 -17 l-253 -7 0 -28 c0 -35 4 -36 170
-43 69 -3 215 -10 325 -15 110 -5 289 -13 398 -17 164 -5 200 -9 204 -22 4 -8
2 -22 -4 -31 -11 -18 -158 -28 -465 -33 -87 -2 -159 -5 -159 -8 -7 -25 -5 -71
3 -76 15 -10 65 -12 518 -19 228 -4 422 -8 430 -10 9 -2 145 -6 303 -10 240
-7 287 -6 291 6 2 8 7 132 10 277 l6 262 -64 0 c-46 0 -70 5 -85 18 -24 20
-19 29 29 57 32 18 54 20 260 21 124 0 331 1 462 2 l236 2 20 33 c12 17 59 81
106 142 117 152 123 145 -153 145 -295 0 -401 8 -401 29 0 39 14 41 339 41
l315 0 -45 38 c-24 20 -71 64 -104 96 -33 33 -83 74 -112 92 -28 19 -54 38
-58 44 -4 6 -52 10 -115 10 -94 0 -111 -2 -119 -17z"/>
<path d="M5437 1903 c-4 -3 -7 -84 -7 -180 l0 -173 63 -1 c34 0 116 -2 182 -3
l120 -3 44 50 c63 70 177 224 225 305 6 9 -58 12 -307 12 -172 0 -317 -3 -320
-7z"/>
</g>
</svg>
